<svg width="75" height="75" viewBox="0 0 75 75" fill="none" xmlns="http://www.w3.org/2000/svg">
<path d="M28.2789 20.4349C29.6106 17.0583 34.3894 17.0583 35.7211 20.4349L40.4136 32.3329C40.8202 33.3638 41.6362 34.1798 42.6671 34.5864L54.5651 39.2789C57.9417 40.6106 57.9417 45.3894 54.5651 46.7211L42.6671 51.4136C41.6362 51.8202 40.8202 52.6362 40.4136 53.6671L35.7211 65.5651C34.3894 68.9417 29.6106 68.9417 28.2789 65.5651L23.5864 53.6671C23.1798 52.6362 22.3638 51.8202 21.3329 51.4136L9.43486 46.7211C6.05828 45.3894 6.05828 40.6106 9.43486 39.2789L21.3329 34.5864C22.3638 34.1798 23.1798 33.3638 23.5864 32.3329L28.2789 20.4349Z" fill="black"/>
<path d="M52.2789 9.43487C53.6106 6.05828 58.3894 6.05828 59.7211 9.43486L60.7366 12.0099C61.1432 13.0408 61.9592 13.8568 62.9901 14.2634L65.5651 15.2789C68.9417 16.6106 68.9417 21.3894 65.5651 22.7211L62.9901 23.7366C61.9592 24.1432 61.1432 24.9592 60.7366 25.9901L59.7211 28.5651C58.3894 31.9417 53.6106 31.9417 52.2789 28.5651L51.2634 25.9901C50.8568 24.9592 50.0408 24.1432 49.0099 23.7366L46.4349 22.7211C43.0583 21.3894 43.0583 16.6106 46.4349 15.2789L49.0099 14.2634C50.0408 13.8568 50.8568 13.0408 51.2634 12.0099L52.2789 9.43487Z" fill="black"/>
</svg>
